<svg width="1280" height="720" xmlns="http://www.w3.org/2000/svg" xmlns:xlink="http://www.w3.org/1999/xlink" overflow="hidden"><defs><clipPath id="clip0"><rect x="0" y="0" width="1280" height="720"/></clipPath><linearGradient x1="623" y1="-13.5001" x2="623" y2="732.5" gradientUnits="userSpaceOnUse" spreadMethod="reflect" id="fill1"><stop offset="0" stop-color="#9CAFBF"/><stop offset="0.5" stop-color="#8FA3B4"/><stop offset="1" stop-color="#7A95AB"/></linearGradient></defs><g clip-path="url(#clip0)"><rect x="0" y="0" width="1280" height="720" fill="#FFFFFF"/><rect x="-66.5001" y="-13.5001" width="1379" height="746" stroke="#156082" stroke-width="1.33333" stroke-miterlimit="8" fill="url(#fill1)"/><path d="M-67 7.88105C-67 2.42389-62.5761-2-57.119-2L1302.12-2C1307.58-2 1312 2.42389 1312 7.88105L1312 102.119C1312 107.576 1307.58 112 1302.12 112L-57.119 112C-62.5761 112-67 107.576-67 102.119Z" stroke="#042433" stroke-width="2" stroke-miterlimit="8" fill="#104862" fill-rule="evenodd"/><path d="M-67 136.408C-67 129.003-60.9968 123-53.5915 123L1298.59 123C1306 123 1312 129.003 1312 136.408L1312 706.592C1312 713.997 1306 720 1298.59 720L-53.5915 720C-60.9968 720-67 713.997-67 706.592Z" stroke="#042433" stroke-width="2" stroke-miterlimit="8" fill="#104862" fill-rule="evenodd"/></g></svg>